<svg width="698" height="698" xmlns="http://www.w3.org/2000/svg">
 <defs>
  <linearGradient y2="0" x2="0.5" y1="1" x1="0.5" id="b247946c-c62f-4d08-994a-4c3d64e1e98f">
   <stop stop-opacity="0.25" stop-color="gray" offset="0"/>
   <stop stop-opacity="0.12" stop-color="gray" offset="0.54"/>
   <stop stop-opacity="0.1" stop-color="gray" offset="1"/>
  </linearGradient>
 </defs>
 <title>profile pic</title>
 <g>
  <title>background</title>
  <rect fill="none" id="canvas_background" height="602" width="802" y="-1" x="-1"/>
 </g>
 <g>
  <title>Layer 1</title>
  <g id="svg_1" opacity="0.5">
   <circle id="svg_2" fill="url(#b247946c-c62f-4d08-994a-4c3d64e1e98f)" r="349" cy="349" cx="349"/>
  </g>
  <circle id="svg_3" fill="#f5f5f5" r="341.64" cy="346.77" cx="349.68"/>
  <path id="svg_4" fill="#cccccc" d="m350,689.76a340,340 0 0 0 187.79,-56.2c-12.59,-68.8 -60.5,-72.72 -60.5,-72.72l-264.2,0s-45.21,3.71 -59.33,67a340.07,340.07 0 0 0 196.24,61.92z"/>
  <path id="svg_6" opacity="0.1" d="m293.15,476.92l105.66,0a0,0 0 0 1 0,0l0,84.53a52.83,52.83 0 0 1 -52.81,52.83l0,0a52.83,52.83 0 0 1 -52.83,-52.83l0,-84.53a0,0 0 0 1 0,0l-0.02,0z"/>
  <path id="svg_7" fill="#cccccc" d="m296.5,473l99,0a3.35,3.35 0 0 1 3.35,3.35l0,81.18a52.83,52.83 0 0 1 -52.85,52.84l0,0a52.83,52.83 0 0 1 -52.83,-52.83l0,-81.19a3.35,3.35 0 0 1 3.33,-3.35z"/>
  <path id="svg_8" opacity="0.1" d="m293.34,516.82a152.07,152.07 0 0 0 105.66,0.29l0,-13l-105.66,0l0,12.71z"/>
  <circle id="svg_9" fill="#cccccc" r="151.45" cy="372.44" cx="346.37"/>
  <ellipse id="svg_13" fill="#cccccc" ry="26.42" rx="14.09" cy="372.3" cx="194.86"/>
  <ellipse id="svg_14" fill="#cccccc" ry="26.42" rx="14.09" cy="372.3" cx="497.8"/>
 </g>
</svg>